<mxfile host="65bd71144e">
    <diagram id="KeBKWK-qA-_sth6gEzbw" name="Page-1">
        <mxGraphModel dx="1078" dy="482" grid="1" gridSize="10" guides="1" tooltips="1" connect="1" arrows="1" fold="1" page="1" pageScale="1" pageWidth="827" pageHeight="1169" math="0" shadow="0">
            <root>
                <mxCell id="0"/>
                <mxCell id="1" parent="0"/>
                <mxCell id="k-7QO2Fhay6mR6xeZc3G-1" value="" style="shape=link;html=1;rounded=0;startArrow=none;fillColor=#d5e8d4;strokeColor=#82b366;" parent="1" source="k-7QO2Fhay6mR6xeZc3G-7" edge="1">
                    <mxGeometry width="100" relative="1" as="geometry">
                        <mxPoint x="160" y="80" as="sourcePoint"/>
                        <mxPoint x="800" y="80" as="targetPoint"/>
                    </mxGeometry>
                </mxCell>
                <mxCell id="k-7QO2Fhay6mR6xeZc3G-4" value="" style="ellipse;whiteSpace=wrap;html=1;fillColor=#f8cecc;strokeColor=#b85450;" parent="1" vertex="1">
                    <mxGeometry x="260" y="70" width="20" height="20" as="geometry"/>
                </mxCell>
                <mxCell id="k-7QO2Fhay6mR6xeZc3G-6" value="" style="shape=link;html=1;rounded=0;endArrow=none;fillColor=#d5e8d4;strokeColor=#82b366;startArrow=none;" parent="1" source="k-7QO2Fhay6mR6xeZc3G-47" target="k-7QO2Fhay6mR6xeZc3G-4" edge="1">
                    <mxGeometry width="100" relative="1" as="geometry">
                        <mxPoint x="160" y="80" as="sourcePoint"/>
                        <mxPoint x="800" y="80" as="targetPoint"/>
                    </mxGeometry>
                </mxCell>
                <mxCell id="k-7QO2Fhay6mR6xeZc3G-7" value="" style="ellipse;whiteSpace=wrap;html=1;fillColor=#d5e8d4;strokeColor=#82b366;" parent="1" vertex="1">
                    <mxGeometry x="390" y="70" width="20" height="20" as="geometry"/>
                </mxCell>
                <mxCell id="k-7QO2Fhay6mR6xeZc3G-13" value="#1 : Known channel, sent messages while offline" style="text;strokeColor=none;fillColor=none;html=1;fontSize=20;fontStyle=1;verticalAlign=middle;align=left;" parent="1" vertex="1">
                    <mxGeometry x="10" y="10" width="480" height="30" as="geometry"/>
                </mxCell>
                <mxCell id="k-7QO2Fhay6mR6xeZc3G-16" value="#2 : Unknown channel is created while offline" style="text;strokeColor=none;fillColor=none;html=1;fontSize=20;fontStyle=1;verticalAlign=middle;align=left;" parent="1" vertex="1">
                    <mxGeometry x="10" y="170" width="480" height="30" as="geometry"/>
                </mxCell>
                <mxCell id="k-7QO2Fhay6mR6xeZc3G-27" value="" style="shape=link;html=1;rounded=0;startArrow=none;fillColor=#d5e8d4;strokeColor=#82b366;" parent="1" source="k-7QO2Fhay6mR6xeZc3G-30" edge="1">
                    <mxGeometry width="100" relative="1" as="geometry">
                        <mxPoint x="160" y="240" as="sourcePoint"/>
                        <mxPoint x="800" y="240" as="targetPoint"/>
                    </mxGeometry>
                </mxCell>
                <mxCell id="k-7QO2Fhay6mR6xeZc3G-30" value="" style="ellipse;whiteSpace=wrap;html=1;fillColor=#d5e8d4;strokeColor=#82b366;" parent="1" vertex="1">
                    <mxGeometry x="390" y="230" width="20" height="20" as="geometry"/>
                </mxCell>
                <mxCell id="k-7QO2Fhay6mR6xeZc3G-31" value="" style="shape=link;html=1;rounded=0;startArrow=none;endArrow=none;fillColor=#f8cecc;strokeColor=#b85450;" parent="1" target="k-7QO2Fhay6mR6xeZc3G-30" edge="1">
                    <mxGeometry width="100" relative="1" as="geometry">
                        <mxPoint x="330" y="240" as="sourcePoint"/>
                        <mxPoint x="800" y="240" as="targetPoint"/>
                    </mxGeometry>
                </mxCell>
                <mxCell id="k-7QO2Fhay6mR6xeZc3G-32" value="" style="shape=link;html=1;rounded=0;startArrow=none;endArrow=none;fillColor=#f8cecc;strokeColor=#b85450;" parent="1" edge="1">
                    <mxGeometry width="100" relative="1" as="geometry">
                        <mxPoint x="160" y="240" as="sourcePoint"/>
                        <mxPoint x="310" y="240" as="targetPoint"/>
                    </mxGeometry>
                </mxCell>
                <mxCell id="k-7QO2Fhay6mR6xeZc3G-33" value="" style="rounded=0;whiteSpace=wrap;html=1;fontSize=20;fillColor=#dae8fc;strokeColor=#6c8ebf;" parent="1" vertex="1">
                    <mxGeometry x="310" y="230" width="20" height="20" as="geometry"/>
                </mxCell>
                <mxCell id="k-7QO2Fhay6mR6xeZc3G-40" value="" style="shape=link;html=1;rounded=0;startArrow=none;endArrow=none;fillColor=#f8cecc;strokeColor=#b85450;entryX=0;entryY=0.5;entryDx=0;entryDy=0;" parent="1" source="k-7QO2Fhay6mR6xeZc3G-23" target="k-7QO2Fhay6mR6xeZc3G-7" edge="1">
                    <mxGeometry width="100" relative="1" as="geometry">
                        <mxPoint x="250" y="80" as="sourcePoint"/>
                        <mxPoint x="270" y="79.99999999999994" as="targetPoint"/>
                    </mxGeometry>
                </mxCell>
                <mxCell id="k-7QO2Fhay6mR6xeZc3G-43" value="Last saved guild message" style="text;html=1;strokeColor=none;fillColor=none;align=center;verticalAlign=middle;whiteSpace=wrap;rounded=0;fontSize=10;" parent="1" vertex="1">
                    <mxGeometry x="230" y="110" width="60" height="30" as="geometry"/>
                </mxCell>
                <mxCell id="k-7QO2Fhay6mR6xeZc3G-44" value="" style="endArrow=classic;html=1;rounded=0;fontSize=20;" parent="1" edge="1">
                    <mxGeometry width="50" height="50" relative="1" as="geometry">
                        <mxPoint x="189.9999999999999" y="110.00000000000006" as="sourcePoint"/>
                        <mxPoint x="189.9999999999999" y="90" as="targetPoint"/>
                    </mxGeometry>
                </mxCell>
                <mxCell id="k-7QO2Fhay6mR6xeZc3G-45" value="First saved channel message" style="text;html=1;strokeColor=none;fillColor=none;align=center;verticalAlign=middle;whiteSpace=wrap;rounded=0;fontSize=10;" parent="1" vertex="1">
                    <mxGeometry x="160" y="110" width="60" height="30" as="geometry"/>
                </mxCell>
                <mxCell id="k-7QO2Fhay6mR6xeZc3G-23" value="2" style="rounded=0;whiteSpace=wrap;html=1;fontSize=14;fillColor=#dae8fc;strokeColor=#6c8ebf;" parent="1" vertex="1">
                    <mxGeometry x="310" y="70" width="20" height="20" as="geometry"/>
                </mxCell>
                <mxCell id="k-7QO2Fhay6mR6xeZc3G-46" value="" style="shape=link;html=1;rounded=0;startArrow=none;endArrow=none;fillColor=#f8cecc;strokeColor=#b85450;entryX=0;entryY=0.5;entryDx=0;entryDy=0;exitX=1;exitY=0.5;exitDx=0;exitDy=0;" parent="1" source="k-7QO2Fhay6mR6xeZc3G-4" target="k-7QO2Fhay6mR6xeZc3G-23" edge="1">
                    <mxGeometry width="100" relative="1" as="geometry">
                        <mxPoint x="300" y="80" as="sourcePoint"/>
                        <mxPoint x="390" y="79.99999999999994" as="targetPoint"/>
                    </mxGeometry>
                </mxCell>
                <mxCell id="k-7QO2Fhay6mR6xeZc3G-47" value="1" style="rounded=0;whiteSpace=wrap;html=1;fontSize=14;fillColor=#dae8fc;strokeColor=#6c8ebf;" parent="1" vertex="1">
                    <mxGeometry x="180" y="70" width="20" height="20" as="geometry"/>
                </mxCell>
                <mxCell id="k-7QO2Fhay6mR6xeZc3G-48" value="" style="shape=link;html=1;rounded=0;endArrow=none;fillColor=#d5e8d4;strokeColor=#82b366;" parent="1" target="k-7QO2Fhay6mR6xeZc3G-47" edge="1">
                    <mxGeometry width="100" relative="1" as="geometry">
                        <mxPoint x="160" y="79.99999999999994" as="sourcePoint"/>
                        <mxPoint x="230" y="79.99999999999994" as="targetPoint"/>
                    </mxGeometry>
                </mxCell>
                <mxCell id="k-7QO2Fhay6mR6xeZc3G-36" value="" style="endArrow=classic;html=1;rounded=0;fontSize=20;exitX=0.5;exitY=0;exitDx=0;exitDy=0;" parent="1" source="k-7QO2Fhay6mR6xeZc3G-43" edge="1">
                    <mxGeometry width="50" height="50" relative="1" as="geometry">
                        <mxPoint x="260" y="100" as="sourcePoint"/>
                        <mxPoint x="260" y="80" as="targetPoint"/>
                    </mxGeometry>
                </mxCell>
                <mxCell id="k-7QO2Fhay6mR6xeZc3G-55" value="#3 : Channel is made available while online" style="text;strokeColor=none;fillColor=none;html=1;fontSize=20;fontStyle=1;verticalAlign=middle;align=left;" parent="1" vertex="1">
                    <mxGeometry x="10" y="290" width="480" height="30" as="geometry"/>
                </mxCell>
                <mxCell id="k-7QO2Fhay6mR6xeZc3G-67" value="" style="shape=link;html=1;rounded=0;startArrow=none;fillColor=#fff2cc;strokeColor=#d6b656;" parent="1" edge="1">
                    <mxGeometry width="100" relative="1" as="geometry">
                        <mxPoint x="160" y="360" as="sourcePoint"/>
                        <mxPoint x="400" y="360" as="targetPoint"/>
                    </mxGeometry>
                </mxCell>
                <mxCell id="k-7QO2Fhay6mR6xeZc3G-68" value="1" style="rounded=0;whiteSpace=wrap;html=1;fontSize=14;fillColor=#dae8fc;strokeColor=#6c8ebf;" parent="1" vertex="1">
                    <mxGeometry x="270" y="350" width="20" height="20" as="geometry"/>
                </mxCell>
                <mxCell id="k-7QO2Fhay6mR6xeZc3G-72" value="" style="shape=link;html=1;rounded=0;startArrow=none;fillColor=#d5e8d4;strokeColor=#82b366;entryX=0;entryY=0.5;entryDx=0;entryDy=0;" parent="1" target="k-7QO2Fhay6mR6xeZc3G-70" edge="1">
                    <mxGeometry width="100" relative="1" as="geometry">
                        <mxPoint x="400" y="360" as="sourcePoint"/>
                        <mxPoint x="640" y="359.89" as="targetPoint"/>
                    </mxGeometry>
                </mxCell>
                <mxCell id="k-7QO2Fhay6mR6xeZc3G-69" value="&lt;font style=&quot;font-size: 14px;&quot;&gt;2&lt;/font&gt;" style="rounded=0;whiteSpace=wrap;html=1;fontSize=14;fillColor=#dae8fc;strokeColor=#6c8ebf;" parent="1" vertex="1">
                    <mxGeometry x="470" y="350" width="20" height="20" as="geometry"/>
                </mxCell>
                <mxCell id="k-7QO2Fhay6mR6xeZc3G-70" value="" style="ellipse;whiteSpace=wrap;html=1;fillColor=#f8cecc;strokeColor=#b85450;" parent="1" vertex="1">
                    <mxGeometry x="550" y="350" width="20" height="20" as="geometry"/>
                </mxCell>
                <mxCell id="k-7QO2Fhay6mR6xeZc3G-73" value="" style="shape=link;html=1;rounded=0;startArrow=none;endArrow=none;fillColor=#f8cecc;strokeColor=#b85450;exitX=1;exitY=0.5;exitDx=0;exitDy=0;entryX=0;entryY=0.5;entryDx=0;entryDy=0;" parent="1" source="k-7QO2Fhay6mR6xeZc3G-70" target="k-7QO2Fhay6mR6xeZc3G-74" edge="1">
                    <mxGeometry width="100" relative="1" as="geometry">
                        <mxPoint x="590" y="360" as="sourcePoint"/>
                        <mxPoint x="680" y="360" as="targetPoint"/>
                    </mxGeometry>
                </mxCell>
                <mxCell id="k-7QO2Fhay6mR6xeZc3G-74" value="" style="ellipse;whiteSpace=wrap;html=1;fillColor=#d5e8d4;strokeColor=#82b366;" parent="1" vertex="1">
                    <mxGeometry x="710" y="350" width="20" height="20" as="geometry"/>
                </mxCell>
                <mxCell id="k-7QO2Fhay6mR6xeZc3G-75" value="" style="shape=link;html=1;rounded=0;startArrow=none;endArrow=none;fillColor=#d5e8d4;strokeColor=#82b366;exitX=1;exitY=0.5;exitDx=0;exitDy=0;" parent="1" source="k-7QO2Fhay6mR6xeZc3G-74" edge="1">
                    <mxGeometry width="100" relative="1" as="geometry">
                        <mxPoint x="580" y="370" as="sourcePoint"/>
                        <mxPoint x="800" y="360" as="targetPoint"/>
                    </mxGeometry>
                </mxCell>
                <mxCell id="k-7QO2Fhay6mR6xeZc3G-76" value="&lt;font style=&quot;font-size: 14px;&quot;&gt;3&lt;/font&gt;" style="rounded=0;whiteSpace=wrap;html=1;fontSize=14;fillColor=#dae8fc;strokeColor=#6c8ebf;" parent="1" vertex="1">
                    <mxGeometry x="630" y="350" width="20" height="20" as="geometry"/>
                </mxCell>
                <mxCell id="k-7QO2Fhay6mR6xeZc3G-77" value="Last saved guild message" style="text;html=1;strokeColor=none;fillColor=none;align=center;verticalAlign=middle;whiteSpace=wrap;rounded=0;fontSize=10;" parent="1" vertex="1">
                    <mxGeometry x="520" y="390" width="60" height="30" as="geometry"/>
                </mxCell>
                <mxCell id="k-7QO2Fhay6mR6xeZc3G-78" value="" style="endArrow=classic;html=1;rounded=0;fontSize=20;exitX=0.5;exitY=0;exitDx=0;exitDy=0;" parent="1" source="k-7QO2Fhay6mR6xeZc3G-77" edge="1">
                    <mxGeometry width="50" height="50" relative="1" as="geometry">
                        <mxPoint x="550" y="380" as="sourcePoint"/>
                        <mxPoint x="550" y="360" as="targetPoint"/>
                    </mxGeometry>
                </mxCell>
                <mxCell id="k-7QO2Fhay6mR6xeZc3G-81" value="" style="endArrow=classic;html=1;rounded=0;fontSize=20;" parent="1" edge="1">
                    <mxGeometry width="50" height="50" relative="1" as="geometry">
                        <mxPoint x="479.9999999999999" y="390" as="sourcePoint"/>
                        <mxPoint x="479.9999999999999" y="370" as="targetPoint"/>
                    </mxGeometry>
                </mxCell>
                <mxCell id="k-7QO2Fhay6mR6xeZc3G-82" value="First saved channel message" style="text;html=1;strokeColor=none;fillColor=none;align=center;verticalAlign=middle;whiteSpace=wrap;rounded=0;fontSize=10;" parent="1" vertex="1">
                    <mxGeometry x="450" y="390" width="60" height="30" as="geometry"/>
                </mxCell>
            </root>
        </mxGraphModel>
    </diagram>
</mxfile>